<?xml version="1.0" encoding="UTF-8"?>
<!-- Generator: visioncortex VTracer 0.6.3 -->
<svg version="1.1" xmlns="http://www.w3.org/2000/svg" width="312" height="510">
<path d="M0,0 L312,0 L312,510 L0,510 Z " fill="#023971" transform="translate(0,0)"/>
<path d="M0,0 L312,0 L312,510 L0,510 Z M55,3 L49,7 L44,15 L40,26 L38,35 L38,62 L42,78 L50,94 L58,104 L69,115 L75,119 L77,119 L63,138 L52,155 L40,176 L30,197 L20,223 L12,249 L7,271 L4,292 L3,303 L3,342 L6,365 L11,386 L17,404 L25,420 L34,434 L43,445 L53,455 L69,467 L84,476 L100,484 L112,491 L131,505 L137,508 L145,507 L157,501 L173,490 L185,479 L193,472 L206,458 L217,444 L223,436 L225,432 L224,425 L220,420 L212,413 L205,405 L196,389 L188,368 L197,377 L205,384 L219,390 L231,392 L242,392 L258,388 L272,381 L283,372 L290,365 L299,352 L305,340 L309,326 L309,304 L304,289 L294,273 L287,263 L279,247 L274,232 L270,212 L268,198 L268,181 L272,176 L273,173 L273,163 L268,149 L259,135 L250,124 L249,122 L254,120 L264,113 L274,104 L283,93 L291,78 L295,65 L296,59 L296,33 L292,18 L287,8 L283,4 L280,3 L271,3 L254,11 L242,20 L233,28 L222,43 L217,54 L213,67 L211,83 L199,76 L197,76 L202,68 L205,58 L205,48 L200,38 L195,33 L187,28 L176,24 L161,24 L152,28 L145,35 L141,44 L140,48 L140,65 L141,69 L132,71 L124,75 L121,59 L115,46 L108,34 L96,21 L82,11 L67,4 L64,3 Z " fill="#FEFEFE" transform="translate(0,0)"/>
<path d="M0,0 L7,2 L19,10 L27,17 L36,29 L43,44 L46,55 L49,81 L52,87 L57,88 L60,85 L64,74 L69,70 L73,72 L75,82 L75,92 L72,110 L72,118 L75,126 L78,128 L86,128 L98,133 L104,137 L119,161 L133,184 L148,209 L159,230 L164,232 L164,221 L153,195 L140,166 L131,149 L125,137 L123,130 L123,107 L124,101 L127,102 L139,118 L147,132 L155,156 L162,181 L174,208 L185,227 L189,228 L189,219 L182,200 L178,189 L172,164 L171,156 L171,130 L175,115 L177,112 L189,124 L197,134 L201,144 L201,146 L194,146 L189,150 L187,155 L187,170 L190,176 L192,178 L197,180 L200,203 L205,223 L213,243 L224,260 L231,270 L235,278 L237,284 L237,304 L232,320 L225,331 L220,337 L207,341 L202,342 L182,342 L169,337 L158,329 L153,324 L149,319 L143,308 L139,308 L139,319 L144,329 L150,336 L163,345 L176,350 L180,351 L199,352 L197,354 L188,357 L181,358 L171,358 L158,354 L144,345 L134,334 L126,320 L123,311 L122,302 L117,300 L101,291 L83,281 L69,270 L62,263 L55,253 L50,242 L44,218 L40,187 L39,185 L35,185 L32,193 L31,205 L29,202 L24,186 L21,170 L20,162 L20,146 L26,120 L31,108 L36,102 L40,99 L40,93 L32,88 L21,81 L11,72 L2,59 L-3,47 L-5,37 L-5,15 L-1,1 Z " fill="#FCC20D" transform="translate(59,21)"/>
<path d="M0,0 L3,1 L15,17 L23,31 L31,55 L38,80 L50,107 L61,126 L65,127 L65,118 L58,99 L54,88 L48,63 L47,55 L47,29 L51,14 L53,11 L65,23 L73,33 L77,43 L77,45 L70,45 L65,49 L63,54 L63,69 L66,75 L68,77 L73,79 L76,102 L81,122 L89,142 L100,159 L107,169 L111,177 L113,183 L113,203 L108,219 L101,230 L96,236 L83,240 L78,241 L58,241 L45,236 L34,228 L29,223 L25,218 L19,207 L15,207 L15,218 L20,228 L26,235 L39,244 L52,249 L56,250 L75,251 L73,253 L64,256 L57,257 L47,257 L34,253 L20,244 L10,233 L2,219 L-1,210 L-2,205 L-2,197 L5,183 L16,170 L23,163 L32,148 L33,144 L33,127 L36,130 L40,131 L40,120 L29,94 L16,65 L7,48 L1,36 L-1,29 L-1,6 Z " fill="#F28C05" transform="translate(183,122)"/>
<path d="M0,0 L3,3 L12,16 L21,26 L31,36 L45,46 L59,54 L90,69 L101,76 L114,87 L122,98 L122,100 L132,92 L145,80 L152,73 L161,60 L166,51 L170,55 L177,64 L176,73 L168,89 L158,102 L146,114 L131,125 L119,132 L114,129 L104,121 L90,112 L65,99 L51,90 L41,82 L28,69 L19,56 L11,40 L5,24 L0,5 Z " fill="#FBC00C" transform="translate(22,358)"/>
<path d="M0,0 L1,0 L6,23 L13,46 L21,64 L27,75 L36,87 L47,99 L58,109 L73,119 L87,126 L99,130 L114,133 L139,133 L143,142 L141,148 L135,158 L127,168 L117,178 L112,180 L105,171 L97,164 L82,155 L66,148 L50,138 L34,125 L23,114 L11,98 L2,82 L-5,66 L-9,55 L-9,46 L-5,20 Z " fill="#D3444B" transform="translate(32,240)"/>
<path d="M0,0 L1,0 L3,30 L7,47 L16,72 L24,90 L34,107 L46,123 L52,130 L63,139 L77,149 L100,161 L101,162 L102,177 L89,176 L74,171 L58,163 L44,153 L34,144 L24,133 L14,118 L4,97 L-4,71 L-11,42 L-14,31 L-13,24 L-1,1 Z " fill="#2EB8B8" transform="translate(63,171)"/>
<path d="M0,0 L7,2 L19,10 L27,17 L36,29 L43,44 L46,55 L49,81 L51,90 L44,95 L41,97 L39,92 L25,84 L14,75 L5,64 L-2,50 L-5,37 L-5,15 L-1,1 Z " fill="#EF8605" transform="translate(59,21)"/>
<path d="M0,0 L4,1 L7,10 L8,15 L8,37 L3,53 L-3,64 L-14,76 L-22,82 L-33,88 L-37,87 L-46,76 L-45,65 L-42,50 L-37,36 L-30,24 L-19,12 L-9,5 Z " fill="#FBC40D" transform="translate(272,21)"/>
<path d="M0,0 L7,6 L19,19 L24,28 L25,34 L18,34 L13,38 L11,43 L11,58 L14,64 L16,66 L21,68 L24,91 L29,111 L33,122 L32,125 L28,123 L24,121 L16,112 L12,104 L6,88 L2,77 L-4,52 L-5,44 L-5,18 L-1,3 Z " fill="#FAC30D" transform="translate(235,133)"/>
<path d="M0,0 L18,0 L29,4 L39,10 L48,17 L48,19 L21,20 L5,24 L-3,29 L-9,37 L-12,46 L-14,58 L-17,58 L-27,47 L-28,45 L-28,27 L-25,16 L-21,10 L-14,4 Z " fill="#F13B2F" transform="translate(144,232)"/>
<path d="M0,0 L3,1 L15,17 L23,31 L31,55 L38,80 L45,96 L44,99 L41,96 L43,100 L40,101 L38,105 L35,107 L16,65 L7,48 L1,36 L-1,29 L-1,6 Z " fill="#F29005" transform="translate(183,122)"/>
<path d="M0,0 L4,4 L11,13 L10,22 L2,38 L-8,51 L-20,63 L-35,74 L-38,75 L-39,62 L-42,50 L-39,46 L-34,41 L-21,29 L-14,22 L-5,9 Z " fill="#F18B05" transform="translate(188,409)"/>
<path d="M0,0 L6,0 L12,4 L19,13 L22,21 L22,32 L17,49 L15,57 L15,67 L17,73 L12,71 L2,66 L-3,64 L-2,53 L5,31 L5,13 Z " fill="#2DB8B8" transform="translate(146,85)"/>
<path d="M0,0 L13,0 L23,4 L25,8 L17,12 L10,16 L6,21 L2,31 L0,42 L-6,40 L-19,33 L-17,21 L-12,9 L-8,4 Z " fill="#D54D61" transform="translate(166,272)"/>
<path d="M0,0 L11,0 L16,3 L21,13 L22,17 L22,27 L19,32 L16,35 L7,36 L-1,32 L-7,24 L-9,19 L-9,10 L-5,4 Z " fill="#023675" transform="translate(131,172)"/>
<path d="M0,0 L10,5 L21,13 L33,24 L42,35 L49,43 L48,49 L45,62 L44,82 L43,82 L42,65 L38,56 L29,43 L19,30 L7,13 L0,2 Z " fill="#2EB8B7" transform="translate(186,89)"/>
<path d="M0,0 L5,2 L6,5 L10,6 L20,14 L34,21 L42,23 L61,24 L59,26 L50,29 L43,30 L33,30 L20,26 L12,21 L7,16 L0,8 L0,6 L-3,5 L-3,2 L0,2 Z " fill="#F18B06" transform="translate(197,349)"/>
<path d="M0,0 L5,1 L9,5 L11,11 L11,26 L8,28 L2,27 L-5,21 L-7,17 L-7,6 L-3,1 Z " fill="#043676" transform="translate(228,305)"/>
<path d="M0,0 L5,1 L8,5 L9,8 L9,16 L6,22 L4,24 L-1,23 L-4,18 L-4,6 Z " fill="#043872" transform="translate(283,306)"/>
<path d="M0,0 L5,1 L13,15 L16,18 L16,20 L20,22 L30,29 L28,30 L24,29 L19,24 L15,23 L12,24 L11,20 L12,17 L7,16 L7,18 L5,19 L8,21 L7,24 L11,26 L13,29 L10,29 L4,22 L-1,12 L-1,1 Z M12,21 Z " fill="#08327C" transform="translate(198,328)"/>
<path d="M0,0 L5,2 L12,3 L14,3 L16,6 L21,6 L21,3 L26,2 L30,3 L49,4 L47,6 L38,9 L31,10 L21,10 L8,6 L0,1 Z " fill="#E88E09" transform="translate(209,369)"/>
<path d="M0,0 L4,1 L5,7 L7,9 L15,10 L17,11 L19,16 L19,25 L18,27 L13,26 L4,10 L0,2 Z " fill="#083574" transform="translate(205,226)"/>
<path d="M0,0 L8,0 L5,1 L6,5 L4,5 L5,7 L7,7 L7,9 L2,10 L-16,10 L-22,8 L-18,7 L-18,5 L-16,6 L-17,8 L-12,7 L-11,4 L-9,3 L2,3 L3,2 L-9,2 L-9,1 Z " fill="#033478" transform="translate(255,363)"/>
<path d="M0,0 L10,5 L21,13 L22,15 L16,13 L14,16 L12,16 L13,20 L9,16 L0,2 Z " fill="#31C2BE" transform="translate(186,89)"/>
<path d="M0,0 L5,1 L6,3 L6,10 L4,15 L2,12 L0,12 L-1,15 L-2,15 L-3,20 L-4,20 L-4,9 L-1,1 Z " fill="#013276" transform="translate(94,205)"/>
<path d="M0,0 L5,1 L8,11 L2,22 L0,23 L2,18 L3,12 L1,9 L-2,7 Z " fill="#DF4647" transform="translate(167,373)"/>
<path d="M0,0 L4,5 L2,6 L3,16 L10,15 L13,20 L12,22 L7,17 L4,17 L10,29 L9,31 L1,15 L-3,5 L-2,2 Z " fill="#E04747" transform="translate(28,296)"/>
<path d="M0,0 L4,1 L18,2 L21,4 L20,7 L20,5 L7,6 L6,10 L1,10 L2,4 L-1,3 Z " fill="#0C3B70" transform="translate(237,361)"/>
<path d="M0,0 L3,1 L2,10 L-2,10 L-5,11 L-9,19 L-11,18 L-7,10 L-4,3 Z " fill="#F8CF0B" transform="translate(128,91)"/>
<path d="M0,0 L1,2 L-5,5 L-10,10 L-15,13 L-23,22 L-27,28 L-28,26 L-20,15 L-13,8 L-2,1 Z " fill="#F6E008" transform="translate(267,24)"/>
<path d="M0,0 L4,2 L8,5 L8,7 L-24,8 L-20,6 L-2,5 L-3,2 L0,2 Z " fill="#EF2230" transform="translate(184,244)"/>
<path d="M0,0 L5,1 L8,5 L9,8 L9,16 L6,22 L2,24 L2,22 L6,18 L6,4 L-2,4 Z " fill="#082684" transform="translate(283,306)"/>
<path d="M0,0 L4,1 L5,7 L7,9 L11,10 L12,13 L10,13 L10,18 L12,19 L10,21 L0,2 Z " fill="#122F78" transform="translate(205,226)"/>
<path d="M0,0 L1,0 L3,10 L3,16 L2,12 L-2,14 L-3,22 L-4,22 L-3,11 Z " fill="#E14A45" transform="translate(32,240)"/>
<path d="M0,0 L5,5 L20,20 L24,24 L19,22 L14,18 L7,10 L0,2 Z " fill="#112580" transform="translate(46,422)"/>
<path d="M0,0 L5,1 L6,5 L4,6 L4,3 L1,3 L-1,13 L-4,12 L-2,3 Z " fill="#0D2D7B" transform="translate(94,205)"/>
<path d="M0,0 L2,3 L2,10 L5,11 L3,12 L-10,5 L-11,3 L-6,5 L-3,5 L-1,5 Z " fill="#E2525C" transform="translate(161,302)"/>
<path d="M0,0 L20,0 L18,2 L13,4 L7,4 L4,2 Z " fill="#E59A0B" transform="translate(238,373)"/>
<path d="M0,0 L3,3 L12,16 L12,19 L4,9 L2,12 L0,5 Z " fill="#E8D50F" transform="translate(22,358)"/>
<path d="M0,0 L3,1 L-3,4 L-5,8 L-8,11 L-10,15 L-13,16 L-12,11 L-4,2 Z " fill="#FCD40A" transform="translate(147,256)"/>
<path d="M0,0 L3,3 L3,5 L6,6 L6,9 L8,9 L8,11 L10,12 L9,15 L6,14 L0,2 Z " fill="#EB9208" transform="translate(203,328)"/>
<path d="M0,0 L2,1 L2,3 L6,2 L3,5 L-4,9 L-8,12 L-6,7 L-5,5 L-2,6 L-3,3 Z " fill="#D24367" transform="translate(180,279)"/>
<path d="M0,0 L2,0 L4,9 L1,14 L-5,14 L-7,13 L-6,9 L-4,12 L0,13 Z " fill="#F5A004" transform="translate(223,240)"/>
<path d="M0,0 L1,0 L2,17 L3,22 L0,19 L-2,3 L0,3 Z " fill="#F1D50B" transform="translate(244,174)"/>
<path d="M0,0 L1,2 L-1,4 L-3,7 L-11,9 L-11,12 L-14,9 L-10,6 Z " fill="#072B7D" transform="translate(153,482)"/>
<path d="M0,0 L10,1 L10,3 L12,3 L12,6 L6,5 L-2,2 Z " fill="#253B62" transform="translate(211,384)"/>
<path d="M0,0 L1,0 L1,19 L-2,30 L-3,26 L-2,17 L-2,15 L0,15 Z " fill="#081551" transform="translate(308,307)"/>
<path d="M0,0 L1,3 L-8,11 L-15,19 L-15,16 L-3,3 Z " fill="#F07A03" transform="translate(206,285)"/>
<path d="M0,0 L1,0 L1,16 L0,23 L-2,21 L-2,12 Z " fill="#E84442" transform="translate(25,274)"/>
<path d="M0,0 L6,2 L19,10 L20,12 L15,10 L8,7 L5,4 L0,1 Z " fill="#0B247F" transform="translate(104,466)"/>
<path d="M0,0 L7,6 L14,12 L12,13 L6,9 L1,4 Z " fill="#DF8D16" transform="translate(187,367)"/>
<path d="M0,0 L4,1 L5,2 L5,7 L0,9 Z " fill="#023970" transform="translate(198,329)"/>
<path d="M0,0 L8,1 L14,5 L13,8 L10,7 L12,7 L9,4 L4,5 L2,4 L2,1 Z " fill="#D03C67" transform="translate(177,273)"/>
<path d="M0,0 L3,3 L6,11 L6,13 L-1,13 L-7,17 L-5,13 L-2,11 L4,11 L0,2 Z " fill="#F1E20C" transform="translate(254,154)"/>
<path d="M0,0 L1,0 L1,19 L-2,15 L-4,9 L-1,9 Z " fill="#F9DF0C" transform="translate(115,257)"/>
<path d="M0,0 L1,3 L-1,11 L-5,12 L-7,7 L-4,5 L-1,5 Z " fill="#21B4C3" transform="translate(233,135)"/>
<path d="M0,0 L8,6 L9,8 L2,6 L0,7 L0,5 L-3,4 L-1,3 Z " fill="#E04747" transform="translate(81,342)"/>
<path d="M0,0 L1,0 L1,7 L0,10 L-4,9 L-5,4 L0,3 Z " fill="#E1840D" transform="translate(196,331)"/>
<path d="M0,0 L2,4 L3,8 L3,21 L1,18 L0,10 Z " fill="#041D83" transform="translate(256,201)"/>
<path d="M0,0 L5,5 L6,9 L8,11 L9,15 L4,10 L-1,2 Z " fill="#EC9409" transform="translate(61,76)"/>
<path d="M0,0 L3,3 L4,5 L6,4 L9,6 L9,10 L4,9 L0,2 Z " fill="#E04748" transform="translate(39,329)"/>
<path d="M0,0 L2,1 L3,5 L3,13 L0,12 L-1,1 Z " fill="#EBC213" transform="translate(103,227)"/>
<path d="M0,0 L1,0 L0,13 L-1,23 L-2,23 L-2,3 L0,3 Z " fill="#FBE205" transform="translate(131,118)"/>
<path d="M0,0 L6,1 L6,5 L2,6 L0,6 L-1,3 Z " fill="#DA545A" transform="translate(182,276)"/>
<path d="M0,0 L4,1 L4,7 L7,6 L8,14 L4,10 L0,2 Z " fill="#09307F" transform="translate(234,230)"/>
<path d="M0,0 L10,5 L9,7 L4,8 L2,3 L0,2 Z " fill="#DF4746" transform="translate(102,358)"/>
<path d="M0,0 L3,3 L9,13 L8,15 L7,12 L6,14 L3,13 L4,9 L0,2 Z " fill="#F2D70B" transform="translate(180,187)"/>
<path d="M0,0 L5,0 L6,2 L-1,3 L-2,7 L-5,8 L-7,10 L-6,5 Z " fill="#0C237F" transform="translate(253,166)"/>
<path d="M0,0 L1,0 L1,7 L5,6 L6,10 L4,10 L3,12 L0,11 Z " fill="#CF7F14" transform="translate(239,321)"/>
<path d="M0,0 L5,2 L14,8 L14,9 L9,9 L9,6 L4,6 L4,3 L0,1 Z " fill="#09247F" transform="translate(71,447)"/>
<path d="M0,0 L1,4 L-1,5 L0,9 L-3,10 L-6,13 L-4,7 Z " fill="#112E7D" transform="translate(197,433)"/>
<path d="M0,0 L5,1 L12,4 L12,5 L3,5 L3,2 L0,1 Z " fill="#E14444" transform="translate(114,365)"/>
<path d="M0,0 L5,2 L10,7 L0,5 Z " fill="#E24745" transform="translate(91,351)"/>
<path d="M0,0 L6,3 L7,6 L5,10 L4,10 L4,4 L0,5 Z " fill="#F5B90E" transform="translate(209,242)"/>
<path d="M0,0 L3,1 L5,9 L7,15 L5,15 L0,4 Z " fill="#EFD70E" transform="translate(239,213)"/>
<path d="M0,0 L2,0 L2,2 L6,2 L5,5 L10,8 L8,9 L1,5 Z " fill="#F19307" transform="translate(85,101)"/>
<path d="M0,0 L2,1 L4,9 L4,17 L2,13 L2,6 L0,6 Z " fill="#102760" transform="translate(119,58)"/>
<path d="M0,0 L8,0 L5,1 L6,5 L4,5 L3,3 L-9,2 L-9,1 Z " fill="#022984" transform="translate(255,363)"/>
<path d="M0,0 L1,2 L-3,13 L-4,9 L-7,8 L-6,5 L-2,6 L-1,1 Z " fill="#EE2433" transform="translate(134,267)"/>
<path d="M0,0 L1,2 L3,2 L2,5 L0,6 L-2,10 L-4,8 Z M3,0 Z " fill="#EFC80F" transform="translate(238,51)"/>
<path d="M0,0 L1,4 L1,13 L1,17 L-1,15 L-2,7 Z " fill="#DD4647" transform="translate(27,264)"/>
<path d="M0,0 L4,2 L2,7 L-4,11 L-2,7 L0,1 Z " fill="#F6D00B" transform="translate(128,167)"/>
<path d="M0,0 L4,1 L6,3 L6,9 L3,12 L1,12 L1,9 L4,9 L4,4 Z " fill="#0D2581" transform="translate(94,111)"/>
<path d="M0,0 L5,1 L10,6 L13,10 L9,8 L0,1 Z " fill="#0C2286" transform="translate(119,431)"/>
<path d="M0,0 L7,6 L10,9 L8,10 L8,8 L3,8 L1,3 Z " fill="#F4D40B" transform="translate(46,388)"/>
<path d="M0,0 L3,0 L4,4 L7,5 L8,12 L3,7 L0,2 Z " fill="#092C82" transform="translate(276,270)"/>
<path d="M0,0 L3,0 L4,3 L-3,4 L-7,3 Z " fill="#0A327B" transform="translate(256,374)"/>
<path d="M0,0 L10,6 L7,7 L3,5 L1,6 L-1,4 L1,4 Z M-2,5 Z " fill="#F5DA0C" transform="translate(127,201)"/>
<path d="M0,0 L3,1 L7,6 L6,8 L2,4 L1,10 L0,10 Z " fill="#EEA408" transform="translate(183,122)"/>
<path d="M0,0 L5,1 L-1,8 L-4,8 L0,3 Z " fill="#F49A04" transform="translate(174,459)"/>
<path d="M0,0 L1,0 L1,9 L-3,8 L-5,4 L-3,4 L-3,6 L-1,6 Z " fill="#042B86" transform="translate(247,241)"/>
<path d="M0,0 L3,1 L3,3 L7,5 L9,8 L6,8 L0,1 Z " fill="#1B3377" transform="translate(202,349)"/>
<path d="M0,0 L6,4 L9,8 L5,6 L0,3 Z " fill="#33C7C2" transform="translate(113,300)"/>
<path d="M0,0 L2,0 L2,4 L-2,5 L-3,7 L-5,5 L-3,5 L-3,2 L0,2 Z " fill="#DA595C" transform="translate(152,299)"/>
<path d="M0,0 L3,1 L1,7 L0,9 L-2,2 Z " fill="#2DB9B8" transform="translate(196,97)"/>
<path d="M0,0 L1,3 L4,4 L7,8 L2,6 L-2,3 Z " fill="#F0D00C" transform="translate(79,447)"/>
<path d="M0,0 L3,3 L4,8 L2,8 L1,10 L0,7 Z " fill="#F9D609" transform="translate(232,183)"/>
<path d="M0,0 L1,0 L2,7 L4,11 L1,10 L-2,4 Z " fill="#0B257E" transform="translate(225,90)"/>
<path d="M0,0 L4,1 L7,3 L7,5 L1,3 L-1,1 Z " fill="#052D62" transform="translate(92,477)"/>
<path d="M0,0 L7,1 L9,4 L6,5 L0,1 Z " fill="#F4CD0A" transform="translate(109,467)"/>
<path d="M0,0 L4,5 L5,9 L0,7 L2,6 L2,4 L0,4 Z " fill="#F29B08" transform="translate(270,262)"/>
<path d="M0,0 L5,2 L9,6 L4,5 L2,6 L1,2 Z " fill="#EF282F" transform="translate(175,238)"/>
<path d="M0,0 L6,5 L6,10 L3,7 L0,2 Z " fill="#0F2482" transform="translate(185,193)"/>
<path d="M0,0 L1,0 L1,7 L-3,8 L-2,2 Z " fill="#E8C215" transform="translate(84,151)"/>
<path d="M0,0 L1,0 L0,10 L-2,7 L-3,2 L0,3 Z " fill="#32C4BD" transform="translate(229,144)"/>
<path d="M0,0 L5,0 L6,4 L2,3 L-2,4 Z " fill="#0C2C80" transform="translate(126,89)"/>
<path d="M0,0 L6,2 L10,6 L6,7 L5,4 L0,1 Z " fill="#11295F" transform="translate(199,77)"/>
<path d="M0,0 L1,4 L-5,8 L-3,3 Z " fill="#0C285E" transform="translate(73,125)"/>
<path d="M0,0 L2,1 L3,7 L0,7 L-1,1 Z " fill="#ECCC10" transform="translate(276,26)"/>
<path d="M0,0 L4,1 L7,3 L3,4 L-2,2 Z " fill="#454553" transform="translate(211,384)"/>
<path d="M0,0 L5,2 L5,5 L1,6 Z " fill="#F9CE0C" transform="translate(25,371)"/>
<path d="M0,0 L6,3 L4,7 L0,2 Z " fill="#E74946" transform="translate(46,340)"/>
<path d="M0,0 L8,4 L8,5 L3,5 L3,3 L0,2 Z " fill="#102F78" transform="translate(161,312)"/>
<path d="M0,0 L4,1 L4,3 L-2,4 Z " fill="#0B3079" transform="translate(283,306)"/>
<path d="M0,0 L3,2 L1,2 L1,7 L3,8 L1,10 L-2,1 Z " fill="#042F7A" transform="translate(214,237)"/>
<path d="M0,0 L4,1 L5,9 L2,6 Z " fill="#032085" transform="translate(205,226)"/>
<path d="M0,0 L1,0 L1,7 L-3,8 L-1,2 Z " fill="#33C7C2" transform="translate(62,172)"/>
<path d="M0,0 L6,3 L4,4 L5,8 L2,5 Z " fill="#33CFC7" transform="translate(186,89)"/>
<path d="M0,0 Z M-2,1 L0,2 L-4,5 L-8,4 L-6,2 Z " fill="#07336A" transform="translate(254,13)"/>
</svg>
